<svg width="181" height="91" viewBox="0 0 181 91" fill="none" xmlns="http://www.w3.org/2000/svg">
<g clip-path="url(#clip0_186_4701)">
<ellipse cx="43.7905" cy="44.6062" rx="43.7749" ry="43.7747" fill="#4D82E8"/>
<path d="M43.7551 8.12793C23.6186 8.12793 7.3125 24.4705 7.3125 44.6068C7.3125 64.7432 23.6186 81.0857 43.7551 81.0857C63.928 81.0857 80.2706 64.7432 80.2706 44.6068C80.2706 24.4705 63.928 8.12793 43.7551 8.12793ZM69.0351 30.0153H58.2737C57.1064 25.4554 55.4284 21.0779 53.2396 17.0288C59.9518 19.327 65.5331 23.9963 69.0351 30.0153ZM43.7916 15.5696C46.8193 19.9471 49.1905 24.7988 50.7591 30.0153H36.8241C38.3927 24.7988 40.7638 19.9471 43.7916 15.5696ZM15.5568 51.9026C14.9731 49.568 14.6083 47.1239 14.6083 44.6068C14.6083 42.0898 14.9731 39.6457 15.5568 37.3111H27.8867C27.5949 39.7187 27.376 42.1263 27.376 44.6068C27.376 47.0874 27.5949 49.495 27.8867 51.9026H15.5568ZM18.548 59.1984H29.3094C30.4767 63.7583 32.1547 68.1357 34.3435 72.1849C27.6313 69.8867 22.05 65.2539 18.548 59.1984ZM29.3094 30.0153H18.548C22.05 23.9598 27.6313 19.327 34.3435 17.0288C32.1547 21.0779 30.4767 25.4554 29.3094 30.0153ZM43.7916 73.644C40.7638 69.2666 38.3927 64.4149 36.8241 59.1984H50.7591C49.1905 64.4149 46.8193 69.2666 43.7916 73.644ZM52.3277 51.9026H35.2555C34.9271 49.495 34.6718 47.0874 34.6718 44.6068C34.6718 42.1263 34.9271 39.6822 35.2555 37.3111H52.3277C52.656 39.6822 52.9113 42.1263 52.9113 44.6068C52.9113 47.0874 52.656 49.495 52.3277 51.9026ZM53.2396 72.1849C55.4284 68.1357 57.1064 63.7583 58.2737 59.1984H69.0351C65.5331 65.2174 59.9518 69.8867 53.2396 72.1849ZM59.6964 51.9026C59.9883 49.495 60.2071 47.0874 60.2071 44.6068C60.2071 42.1263 59.9883 39.7187 59.6964 37.3111H72.0264C72.61 39.6457 72.9748 42.0898 72.9748 44.6068C72.9748 47.1239 72.61 49.568 72.0264 51.9026H59.6964Z" fill="white"/>
</g>
<rect x="41.893" y="32.9272" width="131.477" height="30.4958" rx="9.83136" fill="white" stroke="white" stroke-width="3.79989"/>
<rect x="43.793" y="34.8271" width="127.677" height="26.6959" rx="7.93141" fill="white" stroke="#6E7185" stroke-width="2.72709"/>
<path d="M43.793 42.7586C43.793 38.3782 47.344 34.8271 51.7244 34.8271H77.4532V61.5231H51.7244C47.344 61.5231 43.793 57.9721 43.793 53.5917V42.7586Z" fill="#6E7185"/>
<g clip-path="url(#clip1_186_4701)">
<path d="M65.6035 51.2711H64.6101L64.258 50.9316C65.4903 49.4981 66.2322 47.6371 66.2322 45.6127C66.2322 41.0985 62.5731 37.4395 58.059 37.4395C53.5448 37.4395 49.8857 41.0985 49.8857 45.6127C49.8857 50.1268 53.5448 53.7859 58.059 53.7859C60.0834 53.7859 61.9444 53.044 63.3779 51.8118L63.7174 52.1638V53.1572L70.0045 59.4317L71.878 57.5582L65.6035 51.2711ZM58.059 51.2711C54.928 51.2711 52.4006 48.7437 52.4006 45.6127C52.4006 42.4817 54.928 39.9543 58.059 39.9543C61.1899 39.9543 63.7174 42.4817 63.7174 45.6127C63.7174 48.7437 61.1899 51.2711 58.059 51.2711Z" fill="white"/>
</g>
<path d="M83.5165 45.5551L84.9936 50.6173L86.338 45.9119C86.4819 45.4195 86.587 45.0848 86.6534 44.9078C86.7253 44.7252 86.8553 44.5537 87.0434 44.3932C87.2371 44.2273 87.4999 44.1443 87.8318 44.1443C88.1693 44.1443 88.4321 44.2273 88.6202 44.3932C88.8138 44.5537 88.9494 44.7307 89.0269 44.9244C89.1043 45.1125 89.2122 45.4416 89.3505 45.9119L90.6949 50.6173L92.1887 45.5551C92.2883 45.1899 92.3685 44.9271 92.4293 44.7667C92.4902 44.6007 92.5926 44.4569 92.7364 44.3351C92.8802 44.2079 93.0877 44.1443 93.3588 44.1443C93.6299 44.1443 93.865 44.2383 94.0642 44.4264C94.2634 44.6145 94.363 44.8358 94.363 45.0903C94.363 45.3227 94.2772 45.674 94.1057 46.1443L92.2551 51.5717C92.0946 52.0309 91.9702 52.3628 91.8816 52.5675C91.7931 52.7722 91.652 52.9548 91.4584 53.1152C91.2703 53.2757 91.0103 53.3559 90.6783 53.3559C90.3353 53.3559 90.0642 53.2702 89.865 53.0986C89.6714 52.9271 89.5275 52.7169 89.4335 52.4679C89.3394 52.219 89.2371 51.8953 89.1264 51.497L87.8318 47.082L86.5787 51.497C86.4127 52.1111 86.2329 52.5758 86.0393 52.8912C85.8457 53.201 85.5054 53.3559 85.0185 53.3559C84.7696 53.3559 84.5566 53.3061 84.3795 53.2065C84.208 53.1125 84.0642 52.9769 83.948 52.7999C83.8318 52.6173 83.7295 52.4043 83.6409 52.1609C83.5524 51.9119 83.4833 51.7155 83.4335 51.5717L81.5994 46.1443C81.4169 45.6353 81.3256 45.284 81.3256 45.0903C81.3256 44.8469 81.4224 44.6284 81.616 44.4347C81.8097 44.2411 82.0476 44.1443 82.3297 44.1443C82.706 44.1443 82.9604 44.2522 83.0932 44.4679C83.226 44.6782 83.3671 45.0405 83.5165 45.5551ZM97.8521 45.5551L99.3293 50.6173L100.674 45.9119C100.818 45.4195 100.923 45.0848 100.989 44.9078C101.061 44.7252 101.191 44.5537 101.379 44.3932C101.573 44.2273 101.836 44.1443 102.167 44.1443C102.505 44.1443 102.768 44.2273 102.956 44.3932C103.149 44.5537 103.285 44.7307 103.362 44.9244C103.44 45.1125 103.548 45.4416 103.686 45.9119L105.031 50.6173L106.524 45.5551C106.624 45.1899 106.704 44.9271 106.765 44.7667C106.826 44.6007 106.928 44.4569 107.072 44.3351C107.216 44.2079 107.423 44.1443 107.694 44.1443C107.966 44.1443 108.201 44.2383 108.4 44.4264C108.599 44.6145 108.699 44.8358 108.699 45.0903C108.699 45.3227 108.613 45.674 108.441 46.1443L106.591 51.5717C106.43 52.0309 106.306 52.3628 106.217 52.5675C106.129 52.7722 105.988 52.9548 105.794 53.1152C105.606 53.2757 105.346 53.3559 105.014 53.3559C104.671 53.3559 104.4 53.2702 104.201 53.0986C104.007 52.9271 103.863 52.7169 103.769 52.4679C103.675 52.219 103.573 51.8953 103.462 51.497L102.167 47.082L100.914 51.497C100.748 52.1111 100.569 52.5758 100.375 52.8912C100.181 53.201 99.841 53.3559 99.3542 53.3559C99.1052 53.3559 98.8922 53.3061 98.7152 53.2065C98.5437 53.1125 98.3998 52.9769 98.2836 52.7999C98.1675 52.6173 98.0651 52.4043 97.9766 52.1609C97.8881 51.9119 97.8189 51.7155 97.7691 51.5717L95.9351 46.1443C95.7525 45.6353 95.6612 45.284 95.6612 45.0903C95.6612 44.8469 95.758 44.6284 95.9517 44.4347C96.1453 44.2411 96.3832 44.1443 96.6654 44.1443C97.0416 44.1443 97.2961 44.2522 97.4289 44.4679C97.5616 44.6782 97.7027 45.0405 97.8521 45.5551ZM112.188 45.5551L113.665 50.6173L115.009 45.9119C115.153 45.4195 115.258 45.0848 115.325 44.9078C115.397 44.7252 115.527 44.5537 115.715 44.3932C115.908 44.2273 116.171 44.1443 116.503 44.1443C116.841 44.1443 117.103 44.2273 117.291 44.3932C117.485 44.5537 117.621 44.7307 117.698 44.9244C117.776 45.1125 117.883 45.4416 118.022 45.9119L119.366 50.6173L120.86 45.5551C120.96 45.1899 121.04 44.9271 121.101 44.7667C121.161 44.6007 121.264 44.4569 121.408 44.3351C121.552 44.2079 121.759 44.1443 122.03 44.1443C122.301 44.1443 122.536 44.2383 122.735 44.4264C122.935 44.6145 123.034 44.8358 123.034 45.0903C123.034 45.3227 122.948 45.674 122.777 46.1443L120.926 51.5717C120.766 52.0309 120.641 52.3628 120.553 52.5675C120.464 52.7722 120.323 52.9548 120.13 53.1152C119.942 53.2757 119.682 53.3559 119.35 53.3559C119.007 53.3559 118.735 53.2702 118.536 53.0986C118.343 52.9271 118.199 52.7169 118.105 52.4679C118.011 52.219 117.908 51.8953 117.798 51.497L116.503 47.082L115.25 51.497C115.084 52.1111 114.904 52.5758 114.711 52.8912C114.517 53.201 114.177 53.3559 113.69 53.3559C113.441 53.3559 113.228 53.3061 113.051 53.2065C112.879 53.1125 112.735 52.9769 112.619 52.7999C112.503 52.6173 112.401 52.4043 112.312 52.1609C112.224 51.9119 112.155 51.7155 112.105 51.5717L110.271 46.1443C110.088 45.6353 109.997 45.284 109.997 45.0903C109.997 44.8469 110.094 44.6284 110.287 44.4347C110.481 44.2411 110.719 44.1443 111.001 44.1443C111.377 44.1443 111.632 44.2522 111.764 44.4679C111.897 44.6782 112.038 45.0405 112.188 45.5551ZM125.121 53.3559C124.778 53.3559 124.482 53.2453 124.233 53.024C123.984 52.8027 123.859 52.4928 123.859 52.0945C123.859 51.757 123.978 51.4666 124.216 51.2231C124.454 50.9797 124.747 50.858 125.096 50.858C125.445 50.858 125.741 50.9797 125.984 51.2231C126.233 51.461 126.357 51.7515 126.357 52.0945C126.357 52.4873 126.233 52.7971 125.984 53.024C125.741 53.2453 125.453 53.3559 125.121 53.3559Z" fill="black"/>
<g filter="url(#filter0_d_186_4701)">
<path fill-rule="evenodd" clip-rule="evenodd" d="M143.151 72.1402L150.565 64.7266L163.274 77.4361L169.628 71.0828L156.915 58.3733L164.332 50.9597L136.798 44.6064L143.151 72.1402Z" fill="black"/>
<path fill-rule="evenodd" clip-rule="evenodd" d="M136.796 44.6064L143.149 72.1402L150.563 64.7266L163.272 77.436L169.626 71.0828L156.916 58.3733L164.33 50.9597L136.796 44.6064Z" stroke="white" stroke-width="2.80225"/>
</g>
<defs>
<filter id="filter0_d_186_4701" x="126.52" y="37.1328" width="53.4942" height="53.4937" filterUnits="userSpaceOnUse" color-interpolation-filters="sRGB">
<feFlood flood-opacity="0" result="BackgroundImageFix"/>
<feColorMatrix in="SourceAlpha" type="matrix" values="0 0 0 0 0 0 0 0 0 0 0 0 0 0 0 0 0 0 127 0" result="hardAlpha"/>
<feOffset dy="2.80225"/>
<feGaussianBlur stdDeviation="4.20338"/>
<feColorMatrix type="matrix" values="0 0 0 0 0 0 0 0 0 0 0 0 0 0 0 0 0 0 0.2 0"/>
<feBlend mode="normal" in2="BackgroundImageFix" result="effect1_dropShadow_186_4701"/>
<feBlend mode="normal" in="SourceGraphic" in2="effect1_dropShadow_186_4701" result="shape"/>
</filter>
<clipPath id="clip0_186_4701">
<rect width="87.5497" height="87.5494" fill="white" transform="translate(0.0175781 0.832031)"/>
</clipPath>
<clipPath id="clip1_186_4701">
<rect width="30.1781" height="30.1781" fill="white" transform="translate(46.1133 33.667)"/>
</clipPath>
</defs>
</svg>
